<svg width="129" height="39" viewBox="0 0 129 39" fill="none" xmlns="http://www.w3.org/2000/svg">
<path d="M123.5 0H5.5C2.46243 0 0 2.46243 0 5.5V33.5C0 36.5376 2.46243 39 5.5 39H123.5C126.538 39 129 36.5376 129 33.5V5.5C129 2.46243 126.538 0 123.5 0Z" fill="black"/>
<path fill-rule="evenodd" clip-rule="evenodd" d="M22.5376 11.9906C23.3491 11.0164 23.7489 9.7642 23.6521 8.5C22.4123 8.63022 21.267 9.22278 20.4445 10.1596C19.6323 11.0839 19.2209 12.2932 19.3008 13.521C20.5573 13.5339 21.7502 12.9699 22.5376 11.9906Z" fill="white"/>
<path fill-rule="evenodd" clip-rule="evenodd" d="M25.27 20.0806C25.2918 18.3841 26.1812 16.8171 27.6266 15.9285C26.7106 14.6204 25.2315 13.8208 23.6354 13.7709C21.9562 13.5946 20.3282 14.7757 19.4725 14.7757C18.6002 14.7757 17.2827 13.7884 15.864 13.8176C13.9973 13.8779 12.2992 14.9134 11.3911 16.5454C9.45703 19.8938 10.8997 24.8149 12.7523 27.5215C13.6792 28.8469 14.7625 30.3273 16.1799 30.2748C17.567 30.2173 18.085 29.3903 19.7593 29.3903C21.4181 29.3903 21.9041 30.2748 23.3503 30.2414C24.8387 30.2173 25.7764 28.9102 26.6708 27.5723C27.3368 26.6279 27.8493 25.5842 28.1892 24.4798C26.4215 23.7321 25.2721 22 25.27 20.0806Z" fill="white"/>
<path d="M40.1836 7.57422H42.8476C43.3396 7.57422 43.7656 7.65822 44.1256 7.82622C44.4856 7.99422 44.7796 8.22522 45.0076 8.51922C45.2356 8.80722 45.4036 9.14622 45.5116 9.53622C45.6256 9.92622 45.6826 10.3432 45.6826 10.7872C45.6826 11.2312 45.6256 11.6482 45.5116 12.0382C45.4036 12.4282 45.2356 12.7702 45.0076 13.0642C44.7796 13.3522 44.4856 13.5802 44.1256 13.7482C43.7656 13.9162 43.3396 14.0002 42.8476 14.0002H40.1836V7.57422ZM41.3086 13.0822H42.4156C42.8536 13.0822 43.2106 13.0252 43.4866 12.9112C43.7686 12.7912 43.9876 12.6292 44.1436 12.4252C44.3056 12.2152 44.4136 11.9722 44.4676 11.6962C44.5276 11.4142 44.5576 11.1112 44.5576 10.7872C44.5576 10.4632 44.5276 10.1632 44.4676 9.88722C44.4136 9.60522 44.3056 9.36222 44.1436 9.15822C43.9876 8.94822 43.7686 8.78622 43.4866 8.67222C43.2106 8.55222 42.8536 8.49222 42.4156 8.49222H41.3086V13.0822ZM48.8477 14.1262C48.4757 14.1262 48.1427 14.0662 47.8487 13.9462C47.5607 13.8202 47.3147 13.6492 47.1107 13.4332C46.9127 13.2172 46.7597 12.9592 46.6517 12.6592C46.5497 12.3592 46.4987 12.0292 46.4987 11.6692C46.4987 11.3152 46.5497 10.9882 46.6517 10.6882C46.7597 10.3882 46.9127 10.1302 47.1107 9.91422C47.3147 9.69822 47.5607 9.53022 47.8487 9.41022C48.1427 9.28422 48.4757 9.22122 48.8477 9.22122C49.2197 9.22122 49.5497 9.28422 49.8377 9.41022C50.1317 9.53022 50.3777 9.69822 50.5757 9.91422C50.7797 10.1302 50.9327 10.3882 51.0347 10.6882C51.1427 10.9882 51.1967 11.3152 51.1967 11.6692C51.1967 12.0292 51.1427 12.3592 51.0347 12.6592C50.9327 12.9592 50.7797 13.2172 50.5757 13.4332C50.3777 13.6492 50.1317 13.8202 49.8377 13.9462C49.5497 14.0662 49.2197 14.1262 48.8477 14.1262ZM48.8477 13.3162C49.0757 13.3162 49.2737 13.2682 49.4417 13.1722C49.6097 13.0762 49.7477 12.9502 49.8557 12.7942C49.9637 12.6382 50.0417 12.4642 50.0897 12.2722C50.1437 12.0742 50.1707 11.8732 50.1707 11.6692C50.1707 11.4712 50.1437 11.2732 50.0897 11.0752C50.0417 10.8772 49.9637 10.7032 49.8557 10.5532C49.7477 10.3972 49.6097 10.2712 49.4417 10.1752C49.2737 10.0792 49.0757 10.0312 48.8477 10.0312C48.6197 10.0312 48.4217 10.0792 48.2537 10.1752C48.0857 10.2712 47.9477 10.3972 47.8397 10.5532C47.7317 10.7032 47.6507 10.8772 47.5967 11.0752C47.5487 11.2732 47.5247 11.4712 47.5247 11.6692C47.5247 11.8732 47.5487 12.0742 47.5967 12.2722C47.6507 12.4642 47.7317 12.6382 47.8397 12.7942C47.9477 12.9502 48.0857 13.0762 48.2537 13.1722C48.4217 13.2682 48.6197 13.3162 48.8477 13.3162ZM51.8067 9.34722H52.8957L53.8047 12.8212H53.8227L54.6957 9.34722H55.7307L56.5677 12.8212H56.5857L57.5307 9.34722H58.5747L57.1167 14.0002H56.0637L55.1997 10.5442H55.1817L54.3267 14.0002H53.2467L51.8067 9.34722ZM59.4146 9.34722H60.3866V10.0312L60.4046 10.0492C60.5606 9.79122 60.7646 9.59022 61.0166 9.44622C61.2686 9.29622 61.5476 9.22122 61.8536 9.22122C62.3636 9.22122 62.7656 9.35322 63.0596 9.61722C63.3536 9.88122 63.5006 10.2772 63.5006 10.8052V14.0002H62.4746V11.0752C62.4626 10.7092 62.3846 10.4452 62.2406 10.2832C62.0966 10.1152 61.8716 10.0312 61.5656 10.0312C61.3916 10.0312 61.2356 10.0642 61.0976 10.1302C60.9596 10.1902 60.8426 10.2772 60.7466 10.3912C60.6506 10.4992 60.5756 10.6282 60.5216 10.7782C60.4676 10.9282 60.4406 11.0872 60.4406 11.2552V14.0002H59.4146V9.34722ZM64.7895 7.57422H65.8155V14.0002H64.7895V7.57422ZM69.2464 14.1262C68.8744 14.1262 68.5414 14.0662 68.2474 13.9462C67.9594 13.8202 67.7134 13.6492 67.5094 13.4332C67.3114 13.2172 67.1584 12.9592 67.0504 12.6592C66.9484 12.3592 66.8974 12.0292 66.8974 11.6692C66.8974 11.3152 66.9484 10.9882 67.0504 10.6882C67.1584 10.3882 67.3114 10.1302 67.5094 9.91422C67.7134 9.69822 67.9594 9.53022 68.2474 9.41022C68.5414 9.28422 68.8744 9.22122 69.2464 9.22122C69.6184 9.22122 69.9484 9.28422 70.2364 9.41022C70.5304 9.53022 70.7764 9.69822 70.9744 9.91422C71.1784 10.1302 71.3314 10.3882 71.4334 10.6882C71.5414 10.9882 71.5954 11.3152 71.5954 11.6692C71.5954 12.0292 71.5414 12.3592 71.4334 12.6592C71.3314 12.9592 71.1784 13.2172 70.9744 13.4332C70.7764 13.6492 70.5304 13.8202 70.2364 13.9462C69.9484 14.0662 69.6184 14.1262 69.2464 14.1262ZM69.2464 13.3162C69.4744 13.3162 69.6724 13.2682 69.8404 13.1722C70.0084 13.0762 70.1464 12.9502 70.2544 12.7942C70.3624 12.6382 70.4404 12.4642 70.4884 12.2722C70.5424 12.0742 70.5694 11.8732 70.5694 11.6692C70.5694 11.4712 70.5424 11.2732 70.4884 11.0752C70.4404 10.8772 70.3624 10.7032 70.2544 10.5532C70.1464 10.3972 70.0084 10.2712 69.8404 10.1752C69.6724 10.0792 69.4744 10.0312 69.2464 10.0312C69.0184 10.0312 68.8204 10.0792 68.6524 10.1752C68.4844 10.2712 68.3464 10.3972 68.2384 10.5532C68.1304 10.7032 68.0494 10.8772 67.9954 11.0752C67.9474 11.2732 67.9234 11.4712 67.9234 11.6692C67.9234 11.8732 67.9474 12.0742 67.9954 12.2722C68.0494 12.4642 68.1304 12.6382 68.2384 12.7942C68.3464 12.9502 68.4844 13.0762 68.6524 13.1722C68.8204 13.2682 69.0184 13.3162 69.2464 13.3162ZM76.5254 12.9652C76.5254 13.0912 76.5404 13.1812 76.5704 13.2352C76.6064 13.2892 76.6724 13.3162 76.7684 13.3162C76.7984 13.3162 76.8344 13.3162 76.8764 13.3162C76.9184 13.3162 76.9664 13.3102 77.0204 13.2982V14.0092C76.9844 14.0212 76.9364 14.0332 76.8764 14.0452C76.8224 14.0632 76.7654 14.0782 76.7054 14.0902C76.6454 14.1022 76.5854 14.1112 76.5254 14.1172C76.4654 14.1232 76.4144 14.1262 76.3724 14.1262C76.1624 14.1262 75.9884 14.0842 75.8504 14.0002C75.7124 13.9162 75.6224 13.7692 75.5804 13.5592C75.3764 13.7572 75.1244 13.9012 74.8244 13.9912C74.5304 14.0812 74.2454 14.1262 73.9694 14.1262C73.7594 14.1262 73.5584 14.0962 73.3664 14.0362C73.1744 13.9822 73.0034 13.9012 72.8534 13.7932C72.7094 13.6792 72.5924 13.5382 72.5024 13.3702C72.4184 13.1962 72.3764 12.9952 72.3764 12.7672C72.3764 12.4792 72.4274 12.2452 72.5294 12.0652C72.6374 11.8852 72.7754 11.7442 72.9434 11.6422C73.1174 11.5402 73.3094 11.4682 73.5194 11.4262C73.7354 11.3782 73.9514 11.3422 74.1674 11.3182C74.3534 11.2822 74.5304 11.2582 74.6984 11.2462C74.8664 11.2282 75.0134 11.2012 75.1394 11.1652C75.2714 11.1292 75.3734 11.0752 75.4454 11.0032C75.5234 10.9252 75.5624 10.8112 75.5624 10.6612C75.5624 10.5292 75.5294 10.4212 75.4634 10.3372C75.4034 10.2532 75.3254 10.1902 75.2294 10.1482C75.1394 10.1002 75.0374 10.0702 74.9234 10.0582C74.8094 10.0402 74.7014 10.0312 74.5994 10.0312C74.3114 10.0312 74.0744 10.0912 73.8884 10.2112C73.7024 10.3312 73.5974 10.5172 73.5734 10.7692H72.5474C72.5654 10.4692 72.6374 10.2202 72.7634 10.0222C72.8894 9.82422 73.0484 9.66522 73.2404 9.54522C73.4384 9.42522 73.6604 9.34122 73.9064 9.29322C74.1524 9.24522 74.4044 9.22122 74.6624 9.22122C74.8904 9.22122 75.1154 9.24522 75.3374 9.29322C75.5594 9.34122 75.7574 9.41922 75.9314 9.52722C76.1114 9.63522 76.2554 9.77622 76.3634 9.95022C76.4714 10.1182 76.5254 10.3252 76.5254 10.5712V12.9652ZM75.4994 11.6692C75.3434 11.7712 75.1514 11.8342 74.9234 11.8582C74.6954 11.8762 74.4674 11.9062 74.2394 11.9482C74.1314 11.9662 74.0264 11.9932 73.9244 12.0292C73.8224 12.0592 73.7324 12.1042 73.6544 12.1642C73.5764 12.2182 73.5134 12.2932 73.4654 12.3892C73.4234 12.4792 73.4024 12.5902 73.4024 12.7222C73.4024 12.8362 73.4354 12.9322 73.5014 13.0102C73.5674 13.0882 73.6454 13.1512 73.7354 13.1992C73.8314 13.2412 73.9334 13.2712 74.0414 13.2892C74.1554 13.3072 74.2574 13.3162 74.3474 13.3162C74.4614 13.3162 74.5844 13.3012 74.7164 13.2712C74.8484 13.2412 74.9714 13.1902 75.0854 13.1182C75.2054 13.0462 75.3044 12.9562 75.3824 12.8482C75.4604 12.7342 75.4994 12.5962 75.4994 12.4342V11.6692ZM82.1924 14.0002H81.2204V13.3702H81.2024C81.0644 13.6402 80.8634 13.8352 80.5994 13.9552C80.3354 14.0692 80.0564 14.1262 79.7624 14.1262C79.3964 14.1262 79.0754 14.0632 78.7994 13.9372C78.5294 13.8052 78.3044 13.6282 78.1244 13.4062C77.9444 13.1842 77.8094 12.9232 77.7194 12.6232C77.6294 12.3172 77.5844 11.9902 77.5844 11.6422C77.5844 11.2222 77.6414 10.8592 77.7554 10.5532C77.8694 10.2472 78.0194 9.99522 78.2054 9.79722C78.3974 9.59922 78.6134 9.45522 78.8534 9.36522C79.0994 9.26922 79.3484 9.22122 79.6004 9.22122C79.7444 9.22122 79.8914 9.23622 80.0414 9.26622C80.1914 9.29022 80.3354 9.33222 80.4734 9.39222C80.6114 9.45222 80.7374 9.53022 80.8514 9.62622C80.9714 9.71622 81.0704 9.82422 81.1484 9.95022H81.1664V7.57422H82.1924V14.0002ZM78.6104 11.7232C78.6104 11.9212 78.6344 12.1162 78.6824 12.3082C78.7364 12.5002 78.8144 12.6712 78.9164 12.8212C79.0244 12.9712 79.1594 13.0912 79.3214 13.1812C79.4834 13.2712 79.6754 13.3162 79.8974 13.3162C80.1254 13.3162 80.3204 13.2682 80.4824 13.1722C80.6504 13.0762 80.7854 12.9502 80.8874 12.7942C80.9954 12.6382 81.0734 12.4642 81.1214 12.2722C81.1754 12.0742 81.2024 11.8732 81.2024 11.6692C81.2024 11.1532 81.0854 10.7512 80.8514 10.4632C80.6234 10.1752 80.3114 10.0312 79.9154 10.0312C79.6754 10.0312 79.4714 10.0822 79.3034 10.1842C79.1414 10.2802 79.0064 10.4092 78.8984 10.5712C78.7964 10.7272 78.7214 10.9072 78.6734 11.1112C78.6314 11.3092 78.6104 11.5132 78.6104 11.7232ZM88.3092 14.1262C87.9372 14.1262 87.6042 14.0662 87.3102 13.9462C87.0222 13.8202 86.7762 13.6492 86.5722 13.4332C86.3742 13.2172 86.2212 12.9592 86.1132 12.6592C86.0112 12.3592 85.9602 12.0292 85.9602 11.6692C85.9602 11.3152 86.0112 10.9882 86.1132 10.6882C86.2212 10.3882 86.3742 10.1302 86.5722 9.91422C86.7762 9.69822 87.0222 9.53022 87.3102 9.41022C87.6042 9.28422 87.9372 9.22122 88.3092 9.22122C88.6812 9.22122 89.0112 9.28422 89.2992 9.41022C89.5932 9.53022 89.8392 9.69822 90.0372 9.91422C90.2412 10.1302 90.3942 10.3882 90.4962 10.6882C90.6042 10.9882 90.6582 11.3152 90.6582 11.6692C90.6582 12.0292 90.6042 12.3592 90.4962 12.6592C90.3942 12.9592 90.2412 13.2172 90.0372 13.4332C89.8392 13.6492 89.5932 13.8202 89.2992 13.9462C89.0112 14.0662 88.6812 14.1262 88.3092 14.1262ZM88.3092 13.3162C88.5372 13.3162 88.7352 13.2682 88.9032 13.1722C89.0712 13.0762 89.2092 12.9502 89.3172 12.7942C89.4252 12.6382 89.5032 12.4642 89.5512 12.2722C89.6052 12.0742 89.6322 11.8732 89.6322 11.6692C89.6322 11.4712 89.6052 11.2732 89.5512 11.0752C89.5032 10.8772 89.4252 10.7032 89.3172 10.5532C89.2092 10.3972 89.0712 10.2712 88.9032 10.1752C88.7352 10.0792 88.5372 10.0312 88.3092 10.0312C88.0812 10.0312 87.8832 10.0792 87.7152 10.1752C87.5472 10.2712 87.4092 10.3972 87.3012 10.5532C87.1932 10.7032 87.1122 10.8772 87.0582 11.0752C87.0102 11.2732 86.9862 11.4712 86.9862 11.6692C86.9862 11.8732 87.0102 12.0742 87.0582 12.2722C87.1122 12.4642 87.1932 12.6382 87.3012 12.7942C87.4092 12.9502 87.5472 13.0762 87.7152 13.1722C87.8832 13.2682 88.0812 13.3162 88.3092 13.3162ZM91.6912 9.34722H92.6632V10.0312L92.6812 10.0492C92.8372 9.79122 93.0412 9.59022 93.2932 9.44622C93.5452 9.29622 93.8242 9.22122 94.1302 9.22122C94.6402 9.22122 95.0422 9.35322 95.3362 9.61722C95.6302 9.88122 95.7772 10.2772 95.7772 10.8052V14.0002H94.7512V11.0752C94.7392 10.7092 94.6612 10.4452 94.5172 10.2832C94.3732 10.1152 94.1482 10.0312 93.8422 10.0312C93.6682 10.0312 93.5122 10.0642 93.3742 10.1302C93.2362 10.1902 93.1192 10.2772 93.0232 10.3912C92.9272 10.4992 92.8522 10.6282 92.7982 10.7782C92.7442 10.9282 92.7172 11.0872 92.7172 11.2552V14.0002H91.6912V9.34722ZM99.256 9.34722H100.03V7.95222H101.056V9.34722H101.983V10.1122H101.056V12.5962C101.056 12.7042 101.059 12.7972 101.065 12.8752C101.077 12.9532 101.098 13.0192 101.128 13.0732C101.164 13.1272 101.215 13.1692 101.281 13.1992C101.347 13.2232 101.437 13.2352 101.551 13.2352C101.623 13.2352 101.695 13.2352 101.767 13.2352C101.839 13.2292 101.911 13.2172 101.983 13.1992V13.9912C101.869 14.0032 101.758 14.0152 101.65 14.0272C101.542 14.0392 101.431 14.0452 101.317 14.0452C101.047 14.0452 100.828 14.0212 100.66 13.9732C100.498 13.9192 100.369 13.8442 100.273 13.7482C100.183 13.6462 100.12 13.5202 100.084 13.3702C100.054 13.2202 100.036 13.0492 100.03 12.8572V10.1122H99.256V9.34722ZM102.901 7.57422H103.927V9.95922H103.945C104.071 9.74922 104.257 9.57522 104.503 9.43722C104.755 9.29322 105.034 9.22122 105.34 9.22122C105.85 9.22122 106.252 9.35322 106.546 9.61722C106.84 9.88122 106.987 10.2772 106.987 10.8052V14.0002H105.961V11.0752C105.949 10.7092 105.871 10.4452 105.727 10.2832C105.583 10.1152 105.358 10.0312 105.052 10.0312C104.878 10.0312 104.722 10.0642 104.584 10.1302C104.446 10.1902 104.329 10.2772 104.233 10.3912C104.137 10.4992 104.062 10.6282 104.008 10.7782C103.954 10.9282 103.927 11.0872 103.927 11.2552V14.0002H102.901V7.57422ZM111.444 11.2642C111.432 11.1022 111.396 10.9462 111.336 10.7962C111.282 10.6462 111.204 10.5172 111.102 10.4092C111.006 10.2952 110.886 10.2052 110.742 10.1392C110.604 10.0672 110.448 10.0312 110.274 10.0312C110.094 10.0312 109.929 10.0642 109.779 10.1302C109.635 10.1902 109.509 10.2772 109.401 10.3912C109.299 10.4992 109.215 10.6282 109.149 10.7782C109.089 10.9282 109.056 11.0902 109.05 11.2642H111.444ZM109.05 11.9392C109.05 12.1192 109.074 12.2932 109.122 12.4612C109.176 12.6292 109.254 12.7762 109.356 12.9022C109.458 13.0282 109.587 13.1302 109.743 13.2082C109.899 13.2802 110.085 13.3162 110.301 13.3162C110.601 13.3162 110.841 13.2532 111.021 13.1272C111.207 12.9952 111.345 12.8002 111.435 12.5422H112.407C112.353 12.7942 112.26 13.0192 112.128 13.2172C111.996 13.4152 111.837 13.5832 111.651 13.7212C111.465 13.8532 111.255 13.9522 111.021 14.0182C110.793 14.0902 110.553 14.1262 110.301 14.1262C109.935 14.1262 109.611 14.0662 109.329 13.9462C109.047 13.8262 108.807 13.6582 108.609 13.4422C108.417 13.2262 108.27 12.9682 108.168 12.6682C108.072 12.3682 108.024 12.0382 108.024 11.6782C108.024 11.3482 108.075 11.0362 108.177 10.7422C108.285 10.4422 108.435 10.1812 108.627 9.95922C108.825 9.73122 109.062 9.55122 109.338 9.41922C109.614 9.28722 109.926 9.22122 110.274 9.22122C110.64 9.22122 110.967 9.29922 111.255 9.45522C111.549 9.60522 111.792 9.80622 111.984 10.0582C112.176 10.3102 112.314 10.6012 112.398 10.9312C112.488 11.2552 112.512 11.5912 112.47 11.9392H109.05Z" fill="white"/>
<path d="M56.4199 21.4766C58.7177 21.4766 60.2324 23.293 60.2324 26.0987C60.2324 28.9122 58.7266 30.7198 56.4541 30.7198C55.2795 30.7812 54.1731 30.166 53.6055 29.1358H53.5625V33.6202H51.7041V21.5713H53.5029V23.0772H53.5371C54.1299 22.0534 55.2375 21.4385 56.4199 21.4766ZM66.3847 21.4766C68.6826 21.4766 70.1973 23.293 70.1973 26.0987C70.1973 28.9122 68.6914 30.7198 66.4189 30.7198C65.2443 30.7812 64.1379 30.166 63.5703 29.1358H63.5273V33.6202H61.6689V21.5713H63.4677V23.0772H63.5019C64.0947 22.0534 65.2023 21.4385 66.3847 21.4766ZM79.7266 18C82.3506 18 84.1494 19.4717 84.21 21.6143H82.334C82.2217 20.375 81.1972 19.627 79.7002 19.627C78.2031 19.627 77.1787 20.3838 77.1787 21.4854C77.1787 22.3633 77.833 22.8799 79.4336 23.2754L80.8017 23.6113C83.3496 24.2138 84.4082 25.2373 84.4082 27.0537C84.4082 29.3769 82.5576 30.832 79.6142 30.832C76.8603 30.832 75.001 29.4111 74.8808 27.165L76.7832 27.1651C76.9209 28.3965 78.1172 29.2051 79.7519 29.2051C81.3184 29.2051 82.4453 28.3965 82.4453 27.2861C82.4453 26.3223 81.7656 25.7451 80.1562 25.3496L78.5469 24.9619C76.2666 24.4111 75.208 23.3447 75.208 21.6143C75.208 19.4717 77.0752 18 79.7266 18ZM95.4317 21.46C98.0567 21.46 99.727 23.25 99.727 26.0987C99.727 28.9551 98.0655 30.7374 95.4317 30.7374C92.7988 30.7374 91.1377 28.9551 91.1377 26.0987C91.1377 23.2501 92.8155 21.46 95.4317 21.46ZM110.48 21.46C112.985 21.46 114.561 23.1807 114.561 25.9258V26.5625H108.166V26.6749C108.106 27.3489 108.339 28.0161 108.805 28.5067C109.271 28.9974 109.925 29.2642 110.602 29.2393C111.503 29.3238 112.354 28.8059 112.692 27.9659H114.457C114.207 29.6094 112.606 30.7374 110.559 30.7374C107.925 30.7374 106.29 28.9727 106.29 26.1416C106.29 23.3018 107.934 21.46 110.48 21.46ZM88.4189 19.4288V21.5713H90.1406V23.043H88.4189V28.0342C88.4189 28.8096 88.7637 29.1709 89.5205 29.1709C89.7249 29.1674 89.929 29.153 90.1318 29.1279V30.5908C89.7916 30.6544 89.4457 30.6832 89.0996 30.6768C87.2666 30.6768 86.5518 29.9883 86.5518 28.2324V23.043H85.2354V21.5713H86.5517V19.4288H88.4189ZM46.0664 18.2071L50.5498 30.6251H48.5107L47.375 27.2686H42.6416L41.5049 30.6251H39.5L43.9834 18.2071H46.0664ZM105.252 21.4766C105.466 21.4759 105.68 21.4991 105.889 21.5459V23.2842C105.618 23.2016 105.336 23.1637 105.054 23.1719C104.507 23.1498 103.979 23.3675 103.606 23.768C103.234 24.1684 103.055 24.7116 103.117 25.2549V30.625H101.259V21.5713H103.031V23.1123H103.074C103.321 22.1203 104.23 21.4376 105.252 21.4766ZM95.4317 22.9913C93.9258 22.9913 93.0313 24.1534 93.0313 26.0987C93.0313 28.0606 93.9258 29.2051 95.4317 29.2051C96.9375 29.2051 97.833 28.0606 97.833 26.0987C97.833 24.1446 96.9375 22.9913 95.4317 22.9913ZM55.9297 23.0606C54.5098 23.0606 53.5547 24.2911 53.5547 26.0987C53.5547 27.9229 54.5098 29.1446 55.9297 29.1446C57.375 29.1446 58.3223 27.9483 58.3223 26.0987C58.3223 24.2657 57.375 23.0606 55.9297 23.0606ZM65.8945 23.0606C64.4746 23.0606 63.5195 24.2911 63.5195 26.0987C63.5195 27.9229 64.4746 29.1446 65.8945 29.1446C67.3398 29.1446 68.2871 27.9483 68.2871 26.0987C68.2871 24.2657 67.3398 23.0606 65.8945 23.0606ZM45.0342 20.2725H44.9825L43.1318 25.7198H46.8838L45.0342 20.2725ZM110.48 22.9659C109.869 22.9622 109.282 23.2029 108.849 23.6344C108.416 24.0659 108.173 24.6525 108.175 25.2637H112.701C112.735 24.6581 112.514 24.0658 112.093 23.6296C111.671 23.1934 111.087 22.9528 110.48 22.9659Z" fill="white"/>
</svg>
