<svg width="72" height="66" viewBox="0 0 72 66" fill="none" xmlns="http://www.w3.org/2000/svg">
<path d="M11.5739 30.765C11.0298 30.2233 10.7578 29.5801 10.7578 28.8353C10.7578 28.0905 11.0298 27.4473 11.5739 26.9056L19.8833 19.3223L16.6931 16.4108L15.8028 17.2233C15.2093 17.765 14.5045 18.0358 13.6884 18.0358C12.8723 18.0358 12.1674 17.765 11.5739 17.2233C11.0298 16.7268 10.7578 16.0948 10.7578 15.3275C10.7578 14.5601 11.0298 13.9282 11.5739 13.4316L17.5092 8.01497C18.1027 7.47331 18.8075 7.20247 19.6236 7.20247C20.4397 7.20247 21.1446 7.47331 21.7381 8.01497C22.2822 8.5115 22.5542 9.14345 22.5542 9.91081C22.5542 10.6782 22.2822 11.3101 21.7381 11.8066L20.8478 12.6191L24.038 15.5306L32.3474 7.94727C32.9409 7.4056 33.6458 7.13477 34.4619 7.13477C35.278 7.13477 35.9828 7.4056 36.5763 7.94727C37.1698 8.48893 37.4666 9.13216 37.4666 9.87695C37.4666 10.6217 37.1698 11.265 36.5763 11.8066L34.5731 13.5671L56.4595 33.541C57.5971 34.5792 58.1659 35.8544 58.1659 37.3665C58.1659 38.8787 57.5971 40.1539 56.4595 41.1921L54.3821 43.1556L68.4043 55.8848H59.9465L50.1533 46.9473L48.0759 48.9108C46.9383 49.949 45.541 50.4681 43.8841 50.4681C42.2272 50.4681 40.8299 49.949 39.6923 48.9108L17.806 28.9368L15.8028 30.765C15.2093 31.2615 14.5045 31.5098 13.6884 31.5098C12.8723 31.5098 12.1674 31.2615 11.5739 30.765ZM21.9607 25.1452L43.847 45.1191L52.2306 37.4004L47.7791 33.2702L43.6244 37.0618C43.0309 37.5584 42.3261 37.8179 41.51 37.8405C40.6939 37.8631 40.0138 37.6261 39.4697 37.1296C38.8762 36.5879 38.5795 35.9447 38.5795 35.1999C38.5795 34.4551 38.8762 33.8118 39.4697 33.2702L43.6244 29.4785L39.173 25.416L35.0183 29.2077C34.4248 29.7042 33.7199 29.9525 32.9038 29.9525C32.0877 29.9525 31.3829 29.7042 30.7894 29.2077C30.2453 28.666 29.9733 28.0228 29.9733 27.278C29.9733 26.5332 30.2453 25.89 30.7894 25.3483L34.9441 21.5566L30.4184 17.4264L21.9607 25.1452Z" fill="#6E5544"/>
</svg>
