<svg width="53" height="53" viewBox="0 0 53 53" fill="none" xmlns="http://www.w3.org/2000/svg">
<path d="M6.8125 25.3379C4.975 25.3379 3.42187 24.6834 2.15312 23.3743C0.884375 22.0653 0.25 20.4629 0.25 18.5671C0.25 16.6712 0.884375 15.0688 2.15312 13.7598C3.42187 12.4507 4.975 11.7962 6.8125 11.7962C8.65 11.7962 10.2031 12.4507 11.4719 13.7598C12.7406 15.0688 13.375 16.6712 13.375 18.5671C13.375 20.4629 12.7406 22.0653 11.4719 23.3743C10.2031 24.6834 8.65 25.3379 6.8125 25.3379ZM18.625 14.5046C16.7875 14.5046 15.2344 13.85 13.9656 12.541C12.6969 11.232 12.0625 9.62956 12.0625 7.73372C12.0625 5.83789 12.6969 4.23546 13.9656 2.92643C15.2344 1.6174 16.7875 0.962891 18.625 0.962891C20.4625 0.962891 22.0156 1.6174 23.2844 2.92643C24.5531 4.23546 25.1875 5.83789 25.1875 7.73372C25.1875 9.62956 24.5531 11.232 23.2844 12.541C22.0156 13.85 20.4625 14.5046 18.625 14.5046ZM34.375 14.5046C32.5375 14.5046 30.9844 13.85 29.7156 12.541C28.4469 11.232 27.8125 9.62956 27.8125 7.73372C27.8125 5.83789 28.4469 4.23546 29.7156 2.92643C30.9844 1.6174 32.5375 0.962891 34.375 0.962891C36.2125 0.962891 37.7656 1.6174 39.0344 2.92643C40.3031 4.23546 40.9375 5.83789 40.9375 7.73372C40.9375 9.62956 40.3031 11.232 39.0344 12.541C37.7656 13.85 36.2125 14.5046 34.375 14.5046ZM46.1875 25.3379C44.35 25.3379 42.7969 24.6834 41.5281 23.3743C40.2594 22.0653 39.625 20.4629 39.625 18.5671C39.625 16.6712 40.2594 15.0688 41.5281 13.7598C42.7969 12.4507 44.35 11.7962 46.1875 11.7962C48.025 11.7962 49.5781 12.4507 50.8469 13.7598C52.1156 15.0688 52.75 16.6712 52.75 18.5671C52.75 20.4629 52.1156 22.0653 50.8469 23.3743C49.5781 24.6834 48.025 25.3379 46.1875 25.3379ZM12.4562 52.4212C10.4875 52.4212 8.83594 51.6426 7.50156 50.0853C6.16719 48.528 5.5 46.6886 5.5 44.5671C5.5 42.2198 6.27656 40.166 7.82969 38.4056C9.38281 36.6452 10.925 34.9073 12.4562 33.1921C13.725 31.7927 14.8187 30.2693 15.7375 28.6217C16.6562 26.9742 17.75 25.4282 19.0187 23.9837C19.9812 22.8101 21.0969 21.8396 22.3656 21.0723C23.6344 20.3049 25.0125 19.9212 26.5 19.9212C27.9875 19.9212 29.3656 20.2823 30.6344 21.0046C31.9031 21.7268 33.0187 22.6747 33.9812 23.8483C35.2062 25.2927 36.2891 26.85 37.2297 28.5202C38.1703 30.1903 39.275 31.7476 40.5437 33.1921C42.075 34.9073 43.6172 36.6452 45.1703 38.4056C46.7234 40.166 47.5 42.2198 47.5 44.5671C47.5 46.6886 46.8328 48.528 45.4984 50.0853C44.1641 51.6426 42.5125 52.4212 40.5437 52.4212C38.1812 52.4212 35.8406 52.2181 33.5219 51.8118C31.2031 51.4056 28.8625 51.2025 26.5 51.2025C24.1375 51.2025 21.7969 51.4056 19.4781 51.8118C17.1594 52.2181 14.8187 52.4212 12.4562 52.4212Z" fill="#6E5544"/>
</svg>
