<svg width="55" height="66" viewBox="0 0 55 66" fill="none" xmlns="http://www.w3.org/2000/svg">
<g clip-path="url(#clip0_3617_2683)">
<path d="M16.5449 45.9843L18.5078 43.4375L20.0671 47.3259L18.9088 46.0735L16.5449 45.9843Z" fill="#FBFAF9"/>
<path d="M5.62134 27.3088H0L27.9678 -0.00195312L38.005 10.4555V3.48475L44.9628 3.57927V17.0246L55 27.3088H49.5123C49.5123 27.3088 47.3712 28.2855 47.9058 29.3593C48.4405 30.4332 40.948 24.5336 40.948 24.5336C40.948 24.5336 36.3985 18.0984 33.4529 16.7568C30.5072 15.4151 27.4987 15.2812 27.4987 15.2812L27.1187 15.213L28.9689 17.4709C28.9689 17.4709 27.3414 19.125 27.4961 19.7945C27.6507 20.464 27.7424 21.761 27.7424 21.761L25.8241 24.7541C25.8241 24.7541 26.1359 27.167 28.4107 26.4082C30.6854 25.6495 31.8909 25.0666 31.8909 25.0666C31.8909 25.0666 33.0519 25.1112 32.8711 26.5421C32.6902 27.973 31.9119 29.9606 32.8475 31.234C33.7831 32.5073 35.9923 35.5923 35.9923 35.5923L35.5913 44.9103C35.5913 44.9103 34.6557 47.6593 34.053 46.8532C33.4502 46.0472 32.1137 47.9927 32.1137 47.9927L22.4775 48.3288L21.6756 47.2549L21.5419 41.2897C21.5419 41.2897 24.6867 38.6091 24.7548 36.1962C24.823 33.7833 23.8848 31.7039 26.6941 31.2366C29.5035 30.7666 28.5679 27.6842 28.5679 27.6842L27.4961 27.5503L26.8933 27.3114C26.8933 27.3114 26.0914 26.1431 25.4886 26.1431C24.8859 26.1431 23.4812 25.807 23.4812 25.807C23.4812 25.807 24.4168 25.0036 23.8166 24.1634C23.2165 23.3232 22.011 25.4027 22.011 25.4027L19.469 31.6357C19.469 31.6357 17.396 34.1824 17.1261 34.2507C16.8561 34.3189 14.3167 33.7151 12.2411 36.7974C10.1682 39.8798 8.96269 41.2897 8.96269 41.2897L7.15705 28.5533L5.61872 27.3088H5.62134Z" fill="#FBFAF9"/>
<path d="M37.4941 48.3309L39.4125 42.2975L40.3035 38.543L42.1773 41.0451L42.3555 43.8597C42.3555 43.8597 43.8283 46.2279 44.6748 46.5403C45.5213 46.8528 42.6228 47.0313 42.6228 47.0313C42.6228 47.0313 41.8209 47.6562 42.1327 48.3283H37.4941V48.3309Z" fill="#FBFAF9"/>
<path d="M20.556 18.3437C20.5481 18.6456 20.4486 18.9161 20.2913 19.1681C20.1079 19.4674 19.872 19.7221 19.6178 19.961C19.2561 20.305 18.8945 20.6437 18.5328 20.9876C18.4647 21.0506 18.3966 21.1163 18.3311 21.1793C18.3101 21.2003 18.297 21.2003 18.276 21.1793C17.9248 20.8458 17.5711 20.5176 17.2225 20.1816C17.0207 19.9873 16.8189 19.7904 16.6302 19.5856C16.418 19.3545 16.2371 19.0999 16.1376 18.7979C15.9908 18.3621 16.0301 17.942 16.3079 17.5666C16.494 17.3145 16.756 17.1727 17.06 17.1123C17.3404 17.0572 17.5946 17.1281 17.8305 17.2804C17.9877 17.3828 18.1135 17.5167 18.2315 17.6584C18.3022 17.7477 18.3022 17.7477 18.373 17.6584C18.4857 17.514 18.6115 17.3854 18.7661 17.2856C19.1015 17.0651 19.4527 17.0362 19.8222 17.2016C20.2284 17.3828 20.4643 17.6952 20.5324 18.1337C20.5429 18.2046 20.5481 18.2754 20.556 18.3463V18.3437Z" fill="#C5AFA0"/>
</g>
<path d="M4.19434 59.6826H2.34375V58.7109H4.19434C4.5166 58.7109 4.77702 58.6589 4.97559 58.5547C5.17415 58.4505 5.31901 58.3073 5.41016 58.125C5.50456 57.9395 5.55176 57.7279 5.55176 57.4902C5.55176 57.2656 5.50456 57.0557 5.41016 56.8604C5.31901 56.6618 5.17415 56.5023 4.97559 56.3818C4.77702 56.2614 4.5166 56.2012 4.19434 56.2012H2.71973V62.334H1.49414V55.2246H4.19434C4.74447 55.2246 5.21159 55.3223 5.5957 55.5176C5.98307 55.7096 6.27767 55.9766 6.47949 56.3184C6.68132 56.6569 6.78223 57.0443 6.78223 57.4805C6.78223 57.9395 6.68132 58.3333 6.47949 58.6621C6.27767 58.9909 5.98307 59.2432 5.5957 59.4189C5.21159 59.5947 4.74447 59.6826 4.19434 59.6826ZM10.6836 61.2744V58.7549C10.6836 58.5661 10.6494 58.4033 10.5811 58.2666C10.5127 58.1299 10.4085 58.0241 10.2686 57.9492C10.1318 57.8743 9.95931 57.8369 9.75098 57.8369C9.55892 57.8369 9.3929 57.8695 9.25293 57.9346C9.11296 57.9997 9.00391 58.0876 8.92578 58.1982C8.84766 58.3089 8.80859 58.4342 8.80859 58.5742H7.63672C7.63672 58.3659 7.68717 58.1641 7.78809 57.9688C7.889 57.7734 8.03548 57.5993 8.22754 57.4463C8.4196 57.2933 8.64909 57.1729 8.91602 57.085C9.18294 56.9971 9.48242 56.9531 9.81445 56.9531C10.2116 56.9531 10.5632 57.0199 10.8691 57.1533C11.1784 57.2868 11.4209 57.4886 11.5967 57.7588C11.7757 58.0257 11.8652 58.361 11.8652 58.7646V61.1133C11.8652 61.3542 11.8815 61.5706 11.9141 61.7627C11.9499 61.9515 12.0003 62.1159 12.0654 62.2559V62.334H10.8594C10.804 62.207 10.7601 62.0459 10.7275 61.8506C10.6982 61.652 10.6836 61.46 10.6836 61.2744ZM10.8545 59.1211L10.8643 59.8486H10.0195C9.80143 59.8486 9.60938 59.8698 9.44336 59.9121C9.27734 59.9512 9.139 60.0098 9.02832 60.0879C8.91764 60.166 8.83464 60.2604 8.7793 60.3711C8.72396 60.4818 8.69629 60.6071 8.69629 60.7471C8.69629 60.887 8.72884 61.0156 8.79395 61.1328C8.85905 61.2467 8.95345 61.3363 9.07715 61.4014C9.2041 61.4665 9.3571 61.499 9.53613 61.499C9.77702 61.499 9.98698 61.4502 10.166 61.3525C10.3483 61.2516 10.4915 61.1296 10.5957 60.9863C10.6999 60.8398 10.7552 60.7015 10.7617 60.5713L11.1426 61.0938C11.1035 61.2272 11.0368 61.3704 10.9424 61.5234C10.848 61.6764 10.7243 61.8229 10.5713 61.9629C10.4215 62.0996 10.2409 62.2119 10.0293 62.2998C9.82096 62.3877 9.58008 62.4316 9.30664 62.4316C8.96159 62.4316 8.65397 62.3633 8.38379 62.2266C8.11361 62.0866 7.90202 61.8994 7.74902 61.665C7.59603 61.4274 7.51953 61.1589 7.51953 60.8594C7.51953 60.5794 7.57161 60.332 7.67578 60.1172C7.7832 59.8991 7.93945 59.7168 8.14453 59.5703C8.35286 59.4238 8.60677 59.3132 8.90625 59.2383C9.20573 59.1602 9.54753 59.1211 9.93164 59.1211H10.8545ZM14.5312 61.1621L15.752 57.0508H16.5039L16.2988 58.2812L15.0684 62.334H14.3945L14.5312 61.1621ZM13.8135 57.0508L14.7656 61.1816L14.8438 62.334H14.0918L12.6611 57.0508H13.8135ZM17.6465 61.1328L18.5693 57.0508H19.7168L18.291 62.334H17.5391L17.6465 61.1328ZM16.6309 57.0508L17.8369 61.1133L17.9883 62.334H17.3145L16.0693 58.2764L15.8643 57.0508H16.6309ZM25.8252 59.6826H23.9746V58.7109H25.8252C26.1475 58.7109 26.4079 58.6589 26.6064 58.5547C26.805 58.4505 26.9499 58.3073 27.041 58.125C27.1354 57.9395 27.1826 57.7279 27.1826 57.4902C27.1826 57.2656 27.1354 57.0557 27.041 56.8604C26.9499 56.6618 26.805 56.5023 26.6064 56.3818C26.4079 56.2614 26.1475 56.2012 25.8252 56.2012H24.3506V62.334H23.125V55.2246H25.8252C26.3753 55.2246 26.8424 55.3223 27.2266 55.5176C27.6139 55.7096 27.9085 55.9766 28.1104 56.3184C28.3122 56.6569 28.4131 57.0443 28.4131 57.4805C28.4131 57.9395 28.3122 58.3333 28.1104 58.6621C27.9085 58.9909 27.6139 59.2432 27.2266 59.4189C26.8424 59.5947 26.3753 59.6826 25.8252 59.6826ZM32.3145 61.2744V58.7549C32.3145 58.5661 32.2803 58.4033 32.2119 58.2666C32.1436 58.1299 32.0394 58.0241 31.8994 57.9492C31.7627 57.8743 31.5902 57.8369 31.3818 57.8369C31.1898 57.8369 31.0238 57.8695 30.8838 57.9346C30.7438 57.9997 30.6348 58.0876 30.5566 58.1982C30.4785 58.3089 30.4395 58.4342 30.4395 58.5742H29.2676C29.2676 58.3659 29.318 58.1641 29.4189 57.9688C29.5199 57.7734 29.6663 57.5993 29.8584 57.4463C30.0505 57.2933 30.2799 57.1729 30.5469 57.085C30.8138 56.9971 31.1133 56.9531 31.4453 56.9531C31.8424 56.9531 32.194 57.0199 32.5 57.1533C32.8092 57.2868 33.0518 57.4886 33.2275 57.7588C33.4066 58.0257 33.4961 58.361 33.4961 58.7646V61.1133C33.4961 61.3542 33.5124 61.5706 33.5449 61.7627C33.5807 61.9515 33.6312 62.1159 33.6963 62.2559V62.334H32.4902C32.4349 62.207 32.391 62.0459 32.3584 61.8506C32.3291 61.652 32.3145 61.46 32.3145 61.2744ZM32.4854 59.1211L32.4951 59.8486H31.6504C31.4323 59.8486 31.2402 59.8698 31.0742 59.9121C30.9082 59.9512 30.7699 60.0098 30.6592 60.0879C30.5485 60.166 30.4655 60.2604 30.4102 60.3711C30.3548 60.4818 30.3271 60.6071 30.3271 60.7471C30.3271 60.887 30.3597 61.0156 30.4248 61.1328C30.4899 61.2467 30.5843 61.3363 30.708 61.4014C30.835 61.4665 30.988 61.499 31.167 61.499C31.4079 61.499 31.6178 61.4502 31.7969 61.3525C31.9792 61.2516 32.1224 61.1296 32.2266 60.9863C32.3307 60.8398 32.3861 60.7015 32.3926 60.5713L32.7734 61.0938C32.7344 61.2272 32.6676 61.3704 32.5732 61.5234C32.4788 61.6764 32.3551 61.8229 32.2021 61.9629C32.0524 62.0996 31.8717 62.2119 31.6602 62.2998C31.4518 62.3877 31.2109 62.4316 30.9375 62.4316C30.5924 62.4316 30.2848 62.3633 30.0146 62.2266C29.7445 62.0866 29.5329 61.8994 29.3799 61.665C29.2269 61.4274 29.1504 61.1589 29.1504 60.8594C29.1504 60.5794 29.2025 60.332 29.3066 60.1172C29.4141 59.8991 29.5703 59.7168 29.7754 59.5703C29.9837 59.4238 30.2376 59.3132 30.5371 59.2383C30.8366 59.1602 31.1784 59.1211 31.5625 59.1211H32.4854ZM37.1484 57.0508V57.9102H34.1699V57.0508H37.1484ZM35.0293 55.7568H36.2061V60.874C36.2061 61.0368 36.2288 61.1621 36.2744 61.25C36.3232 61.3346 36.39 61.3916 36.4746 61.4209C36.5592 61.4502 36.6585 61.4648 36.7725 61.4648C36.8538 61.4648 36.932 61.46 37.0068 61.4502C37.0817 61.4404 37.1419 61.4307 37.1875 61.4209L37.1924 62.3193C37.0947 62.3486 36.9808 62.3747 36.8506 62.3975C36.7236 62.4202 36.5771 62.4316 36.4111 62.4316C36.141 62.4316 35.9017 62.3844 35.6934 62.29C35.485 62.1924 35.3223 62.0345 35.2051 61.8164C35.0879 61.5983 35.0293 61.3086 35.0293 60.9473V55.7568ZM39.2383 58.0566V62.334H38.0615V57.0508H39.1846L39.2383 58.0566ZM40.8545 57.0166L40.8447 58.1104C40.7731 58.0973 40.695 58.0876 40.6104 58.0811C40.529 58.0745 40.4476 58.0713 40.3662 58.0713C40.1644 58.0713 39.987 58.1006 39.834 58.1592C39.681 58.2145 39.5524 58.2959 39.4482 58.4033C39.3473 58.5075 39.2692 58.6344 39.2139 58.7842C39.1585 58.9339 39.126 59.1016 39.1162 59.2871L38.8477 59.3066C38.8477 58.9746 38.8802 58.667 38.9453 58.3838C39.0104 58.1006 39.1081 57.8516 39.2383 57.6367C39.3717 57.4219 39.5378 57.2542 39.7363 57.1338C39.9382 57.0133 40.1709 56.9531 40.4346 56.9531C40.5062 56.9531 40.5827 56.9596 40.6641 56.9727C40.7487 56.9857 40.8122 57.0003 40.8545 57.0166ZM41.2402 59.751V59.6387C41.2402 59.2578 41.2956 58.9046 41.4062 58.5791C41.5169 58.2503 41.6764 57.9655 41.8848 57.7246C42.0964 57.4805 42.3535 57.2917 42.6562 57.1582C42.9622 57.0215 43.3073 56.9531 43.6914 56.9531C44.0788 56.9531 44.4238 57.0215 44.7266 57.1582C45.0326 57.2917 45.2913 57.4805 45.5029 57.7246C45.7145 57.9655 45.8757 58.2503 45.9863 58.5791C46.097 58.9046 46.1523 59.2578 46.1523 59.6387V59.751C46.1523 60.1318 46.097 60.485 45.9863 60.8105C45.8757 61.1361 45.7145 61.4209 45.5029 61.665C45.2913 61.9059 45.0342 62.0947 44.7314 62.2314C44.4287 62.3649 44.0853 62.4316 43.7012 62.4316C43.3138 62.4316 42.9671 62.3649 42.6611 62.2314C42.3584 62.0947 42.1012 61.9059 41.8896 61.665C41.6781 61.4209 41.5169 61.1361 41.4062 60.8105C41.2956 60.485 41.2402 60.1318 41.2402 59.751ZM42.417 59.6387V59.751C42.417 59.9886 42.4414 60.2132 42.4902 60.4248C42.5391 60.6364 42.6156 60.8219 42.7197 60.9814C42.8239 61.141 42.9574 61.2663 43.1201 61.3574C43.2829 61.4486 43.4766 61.4941 43.7012 61.4941C43.9193 61.4941 44.1081 61.4486 44.2676 61.3574C44.4303 61.2663 44.5638 61.141 44.668 60.9814C44.7721 60.8219 44.8486 60.6364 44.8975 60.4248C44.9495 60.2132 44.9756 59.9886 44.9756 59.751V59.6387C44.9756 59.4043 44.9495 59.1829 44.8975 58.9746C44.8486 58.763 44.7705 58.5758 44.6631 58.4131C44.5589 58.2503 44.4255 58.1234 44.2627 58.0322C44.1032 57.9378 43.9128 57.8906 43.6914 57.8906C43.4701 57.8906 43.278 57.9378 43.1152 58.0322C42.9557 58.1234 42.8239 58.2503 42.7197 58.4131C42.6156 58.5758 42.5391 58.763 42.4902 58.9746C42.4414 59.1829 42.417 59.4043 42.417 59.6387ZM48.3984 54.834V62.334H47.2168V54.834H48.3984ZM52.6514 60.9033C52.6514 60.7861 52.6221 60.6803 52.5635 60.5859C52.5049 60.4883 52.3926 60.4004 52.2266 60.3223C52.0638 60.2441 51.8229 60.1725 51.5039 60.1074C51.224 60.0456 50.9668 59.9723 50.7324 59.8877C50.5013 59.7998 50.3027 59.694 50.1367 59.5703C49.9707 59.4466 49.8421 59.3001 49.751 59.1309C49.6598 58.9616 49.6143 58.7663 49.6143 58.5449C49.6143 58.3301 49.6615 58.1266 49.7559 57.9346C49.8503 57.7425 49.9854 57.5732 50.1611 57.4268C50.3369 57.2803 50.5501 57.1647 50.8008 57.0801C51.0547 56.9954 51.3379 56.9531 51.6504 56.9531C52.0931 56.9531 52.4723 57.028 52.7881 57.1777C53.1071 57.3242 53.3512 57.5244 53.5205 57.7783C53.6898 58.029 53.7744 58.3122 53.7744 58.6279H52.5977C52.5977 58.488 52.5618 58.3577 52.4902 58.2373C52.4219 58.1136 52.3177 58.0143 52.1777 57.9395C52.0378 57.8613 51.862 57.8223 51.6504 57.8223C51.4486 57.8223 51.2809 57.8548 51.1475 57.9199C51.0173 57.9818 50.9196 58.0632 50.8545 58.1641C50.7926 58.265 50.7617 58.3757 50.7617 58.4961C50.7617 58.584 50.778 58.6637 50.8105 58.7354C50.8464 58.8037 50.9049 58.8672 50.9863 58.9258C51.0677 58.9811 51.1784 59.0332 51.3184 59.082C51.4616 59.1309 51.6406 59.1781 51.8555 59.2236C52.2591 59.3083 52.6058 59.4173 52.8955 59.5508C53.1885 59.681 53.4131 59.8503 53.5693 60.0586C53.7256 60.2637 53.8037 60.5241 53.8037 60.8398C53.8037 61.0742 53.7533 61.2891 53.6523 61.4844C53.5547 61.6764 53.4115 61.8441 53.2227 61.9873C53.0339 62.1273 52.8076 62.2363 52.5439 62.3145C52.2835 62.3926 51.9906 62.4316 51.665 62.4316C51.1865 62.4316 50.7812 62.347 50.4492 62.1777C50.1172 62.0052 49.8649 61.7855 49.6924 61.5186C49.5231 61.2484 49.4385 60.9684 49.4385 60.6787H50.5762C50.5892 60.8968 50.6494 61.071 50.7568 61.2012C50.8675 61.3281 51.0042 61.4209 51.167 61.4795C51.333 61.5348 51.5039 61.5625 51.6797 61.5625C51.8913 61.5625 52.0687 61.5348 52.2119 61.4795C52.3551 61.4209 52.4642 61.3428 52.5391 61.2451C52.6139 61.1442 52.6514 61.0303 52.6514 60.9033Z" fill="#FBFAF9"/>
<defs>
<clipPath id="clip0_3617_2683">
<rect width="55" height="48.3333" fill="white"/>
</clipPath>
</defs>
</svg>
