<svg width="129" height="39" viewBox="0 0 129 39" fill="none" xmlns="http://www.w3.org/2000/svg">
<path d="M123.5 0H5.5C2.46243 0 0 2.46243 0 5.5V33.5C0 36.5376 2.46243 39 5.5 39H123.5C126.538 39 129 36.5376 129 33.5V5.5C129 2.46243 126.538 0 123.5 0Z" fill="black"/>
<path fill-rule="evenodd" clip-rule="evenodd" d="M8.93466 7.0471C8.64366 7.3551 8.47266 7.8321 8.47266 8.4511V30.5491C8.47266 31.1681 8.64366 31.6451 8.93466 31.9531L9.00866 32.0251L21.3877 19.6461V19.3541L9.00866 6.9751L8.93466 7.0471Z" fill="#00D7FE"/>
<mask id="mask0_1395_726" style="mask-type:alpha" maskUnits="userSpaceOnUse" x="21" y="15" width="11" height="9">
<path d="M25.5137 23.774L21.3887 19.646V19.354L25.5157 15.2271L30.4977 18.0571C31.8937 18.8511 31.8937 20.1491 30.4977 20.9421L25.6087 23.7201L25.5137 23.774Z" fill="white"/>
</mask>
<g mask="url(#mask0_1395_726)">
<path fill-rule="evenodd" clip-rule="evenodd" d="M25.5137 23.774L21.3887 19.646V19.354L25.5157 15.2271L30.4977 18.0571C31.8937 18.8511 31.8937 20.1491 30.4977 20.9421L25.6087 23.7201L25.5137 23.774Z" fill="url(#paint0_linear_1395_726)"/>
</g>
<mask id="mask1_1395_726" style="mask-type:alpha" maskUnits="userSpaceOnUse" x="8" y="19" width="18" height="14">
<path d="M25.6066 23.72L21.3866 19.5L8.93359 31.953C9.39459 32.44 10.1546 32.5 11.0106 32.014L25.6066 23.72Z" fill="white"/>
</mask>
<g mask="url(#mask1_1395_726)">
<path fill-rule="evenodd" clip-rule="evenodd" d="M25.6066 23.72L21.3866 19.5L8.93359 31.953C9.39459 32.44 10.1546 32.5 11.0106 32.014L25.6066 23.72Z" fill="url(#paint1_linear_1395_726)"/>
</g>
<path fill-rule="evenodd" clip-rule="evenodd" d="M103.394 30.453H105.26V17.952H103.394V30.453ZM120.201 22.455L118.062 27.875H117.998L115.778 22.455H113.768L117.097 30.03L115.199 34.244H117.146L122.276 22.455H120.201ZM109.619 29.033C109.007 29.033 108.155 28.728 108.155 27.972C108.155 27.007 109.217 26.637 110.133 26.637C110.954 26.637 111.339 26.814 111.838 27.055C111.693 28.213 110.696 29.033 109.619 29.033ZM109.844 22.182C108.493 22.182 107.094 22.777 106.515 24.096L108.171 24.787C108.525 24.096 109.184 23.87 109.876 23.87C110.841 23.87 111.822 24.449 111.838 25.479V25.607C111.5 25.414 110.777 25.125 109.892 25.125C108.107 25.125 106.289 26.106 106.289 27.939C106.289 29.612 107.753 30.69 109.393 30.69C110.648 30.69 111.339 30.127 111.774 29.467H111.838V30.432H113.639V25.64C113.639 23.42 111.983 22.182 109.844 22.182ZM98.312 23.977H95.658V19.692H98.312C99.707 19.692 100.499 20.847 100.499 21.834C100.499 22.803 99.707 23.977 98.312 23.977ZM98.264 17.952H93.793V30.453H95.658V25.717H98.264C100.332 25.717 102.365 24.219 102.365 21.834C102.365 19.449 100.332 17.952 98.264 17.952ZM73.883 29.035C72.594 29.035 71.515 27.956 71.515 26.474C71.515 24.976 72.594 23.88 73.883 23.88C75.156 23.88 76.154 24.976 76.154 26.474C76.154 27.956 75.156 29.035 73.883 29.035ZM76.025 23.155H75.961C75.542 22.656 74.737 22.205 73.722 22.205C71.595 22.205 69.646 24.073 69.646 26.474C69.646 28.858 71.595 30.711 73.722 30.711C74.737 30.711 75.542 30.26 75.961 29.744H76.025V30.356C76.025 31.984 75.156 32.854 73.754 32.854C72.61 32.854 71.901 32.032 71.611 31.339L69.984 32.016C70.451 33.144 71.692 34.529 73.754 34.529C75.945 34.529 77.798 33.24 77.798 30.099V22.462H76.025V23.155ZM79.087 30.453H80.956V17.951H79.087V30.453ZM83.71 26.329C83.662 24.686 84.983 23.848 85.933 23.848C86.675 23.848 87.303 24.218 87.512 24.75L83.71 26.329ZM89.51 24.911C89.156 23.961 88.076 22.205 85.869 22.205C83.678 22.205 81.858 23.928 81.858 26.458C81.858 28.842 83.662 30.711 86.078 30.711C88.028 30.711 89.156 29.519 89.623 28.826L88.173 27.859C87.69 28.568 87.029 29.035 86.078 29.035C85.128 29.035 84.451 28.6 84.016 27.747L89.703 25.395L89.51 24.911ZM44.202 23.51V25.314H48.519C48.39 26.329 48.052 27.07 47.537 27.586C46.908 28.214 45.925 28.906 44.202 28.906C41.544 28.906 39.465 26.764 39.465 24.106C39.465 21.447 41.544 19.305 44.202 19.305C45.636 19.305 46.683 19.869 47.456 20.594L48.729 19.321C47.649 18.29 46.216 17.5 44.202 17.5C40.561 17.5 37.5 20.465 37.5 24.106C37.5 27.747 40.561 30.711 44.202 30.711C46.167 30.711 47.649 30.067 48.809 28.858C50.001 27.666 50.372 25.991 50.372 24.637C50.372 24.218 50.34 23.832 50.275 23.51H44.202ZM55.281 29.035C53.992 29.035 52.88 27.972 52.88 26.458C52.88 24.927 53.992 23.88 55.281 23.88C56.569 23.88 57.681 24.927 57.681 26.458C57.681 27.972 56.569 29.035 55.281 29.035ZM55.281 22.205C52.928 22.205 51.011 23.993 51.011 26.458C51.011 28.906 52.928 30.711 55.281 30.711C57.633 30.711 59.55 28.906 59.55 26.458C59.55 23.993 57.633 22.205 55.281 22.205ZM64.594 29.035C63.305 29.035 62.193 27.972 62.193 26.458C62.193 24.927 63.305 23.88 64.594 23.88C65.883 23.88 66.994 24.927 66.994 26.458C66.994 27.972 65.883 29.035 64.594 29.035ZM64.594 22.205C62.242 22.205 60.325 23.993 60.325 26.458C60.325 28.906 62.242 30.711 64.594 30.711C66.946 30.711 68.863 28.906 68.863 26.458C68.863 23.993 66.946 22.205 64.594 22.205Z" fill="#FFFFFE"/>
<path d="M42.9703 10.314V12.6562C42.8912 12.7734 42.7652 12.9053 42.5924 13.0518C42.4195 13.1953 42.1807 13.3213 41.8761 13.4297C41.5743 13.5352 41.1846 13.5879 40.7071 13.5879C40.3175 13.5879 39.9586 13.5205 39.6304 13.3857C39.3053 13.248 39.0225 13.0488 38.7823 12.7881C38.545 12.5244 38.3604 12.2051 38.2286 11.8301C38.0997 11.4521 38.0352 11.0244 38.0352 10.5469V10.0503C38.0352 9.5728 38.0909 9.14648 38.2022 8.77148C38.3165 8.39648 38.4835 8.07861 38.7032 7.81787C38.9229 7.5542 39.1925 7.35498 39.5118 7.22021C39.8311 7.08252 40.1973 7.01367 40.6104 7.01367C41.0997 7.01367 41.5084 7.09863 41.8365 7.26855C42.1676 7.43555 42.4254 7.66699 42.6099 7.96289C42.7974 8.25879 42.9176 8.5957 42.9703 8.97363H42.1221C42.0841 8.74219 42.0079 8.53125 41.8936 8.34082C41.7823 8.15039 41.6226 7.99805 41.4146 7.88379C41.2066 7.7666 40.9386 7.70801 40.6104 7.70801C40.3145 7.70801 40.0582 7.76221 39.8414 7.87061C39.6246 7.979 39.4459 8.13428 39.3053 8.33643C39.1646 8.53857 39.0592 8.7832 38.9888 9.07031C38.9215 9.35742 38.8878 9.6812 38.8878 10.0415V10.5469C38.8878 10.916 38.9303 11.2456 39.0152 11.5356C39.1031 11.8257 39.2276 12.0732 39.3887 12.2783C39.5499 12.4805 39.7418 12.6343 39.9644 12.7397C40.19 12.8452 40.439 12.8979 40.7115 12.8979C41.0133 12.8979 41.2579 12.873 41.4454 12.8232C41.6329 12.7705 41.7794 12.709 41.8848 12.6387C41.9903 12.5654 42.0709 12.4966 42.1265 12.4321V10.9995H40.6456V10.314H42.9703ZM48.1715 12.8101V13.5H44.7833V12.8101H48.1715ZM44.9547 7.10156V13.5H44.1065V7.10156H44.9547ZM47.7232 9.8525V10.5425H44.7833V9.8525H47.7232ZM48.1275 7.10156V7.7959H44.7833V7.10156H48.1275ZM51.4039 7.10156V13.5H50.569V7.10156H51.4039ZM53.4606 7.10156V7.7959H48.5167V7.10156H53.4606ZM56.8361 7.10156V13.5H55.9879V7.10156H56.8361ZM60.341 7.10156V13.5H59.506V7.10156H60.341ZM62.3976 7.10156V7.7959H57.4538V7.10156H62.3976ZM69.7898 10.0986V10.5029C69.7898 10.9834 69.7297 11.4141 69.6096 11.7949C69.4895 12.1758 69.3166 12.4995 69.091 12.7661C68.8654 13.0327 68.5945 13.2363 68.278 13.377C67.9646 13.5176 67.613 13.5879 67.2234 13.5879C66.8454 13.5879 66.4983 13.5176 66.1819 13.377C65.8684 13.2363 65.5959 13.0327 65.3645 12.7661C65.136 12.4995 64.9587 12.1758 64.8327 11.7949C64.7068 11.4141 64.6438 10.9834 64.6438 10.5029V10.0986C64.6438 9.6182 64.7053 9.18896 64.8283 8.81104C64.9543 8.43018 65.1316 8.10645 65.3601 7.83984C65.5886 7.57031 65.8596 7.36523 66.1731 7.22461C66.4895 7.08398 66.8366 7.01367 67.2146 7.01367C67.6042 7.01367 67.9558 7.08398 68.2693 7.22461C68.5857 7.36523 68.8567 7.57031 69.0822 7.83984C69.3108 8.10645 69.4851 8.43018 69.6052 8.81104C69.7282 9.18896 69.7898 9.6182 69.7898 10.0986ZM68.9504 10.5029V10.0898C68.9504 9.709 68.9109 9.37207 68.8318 9.0791C68.7556 8.78613 68.6428 8.54004 68.4934 8.34082C68.344 8.1416 68.1609 7.99072 67.9441 7.88818C67.7302 7.78564 67.487 7.73438 67.2146 7.73438C66.9509 7.73438 66.7121 7.78564 66.4983 7.88818C66.2873 7.99072 66.1057 8.1416 65.9533 8.34082C65.8039 8.54004 65.6882 8.78613 65.6062 9.0791C65.5241 9.37207 65.4831 9.709 65.4831 10.0898V10.5029C65.4831 10.8867 65.5241 11.2266 65.6062 11.5225C65.6882 11.8154 65.8054 12.063 65.9577 12.2651C66.113 12.4644 66.2961 12.6152 66.507 12.7178C66.7209 12.8203 66.9597 12.8716 67.2234 12.8716C67.4987 12.8716 67.7434 12.8203 67.9572 12.7178C68.1711 12.6152 68.3513 12.4644 68.4978 12.2651C68.6472 12.063 68.76 11.8154 68.8362 11.5225C68.9123 11.2266 68.9504 10.8867 68.9504 10.5029ZM75.7117 7.10156V13.5H74.8591L71.6379 8.56494V13.5H70.7898V7.10156H71.6379L74.8723 12.0498V7.10156H75.7117Z" fill="white"/>
<defs>
<linearGradient id="paint0_linear_1395_726" x1="29.5895" y1="19.5004" x2="21.3887" y2="19.5004" gradientUnits="userSpaceOnUse">
<stop stop-color="#FFBC00"/>
<stop offset="1" stop-color="#FFDA03"/>
</linearGradient>
<linearGradient id="paint1_linear_1395_726" x1="23.3132" y1="23.4708" x2="12.6097" y2="32.2933" gradientUnits="userSpaceOnUse">
<stop stop-color="#E22652"/>
<stop offset="1" stop-color="#FF3A44"/>
</linearGradient>
</defs>
</svg>
