<svg width="55" height="49" viewBox="0 0 55 49" fill="none" xmlns="http://www.w3.org/2000/svg">
<mask id="mask0_4011_2697" style="mask-type:luminance" maskUnits="userSpaceOnUse" x="0" y="0" width="55" height="49">
<path d="M55 0H0V48.3333H55V0Z" fill="white"/>
</mask>
<g mask="url(#mask0_4011_2697)">
<path d="M16.5449 45.9843L18.5078 43.4375L20.0671 47.3259L18.9088 46.0735L16.5449 45.9843Z" fill="#7E614E"/>
<path d="M5.62134 27.3088H0L27.9678 -0.00195312L38.005 10.4555V3.48475L44.9628 3.57927V17.0246L55 27.3088H49.5123C49.5123 27.3088 47.3712 28.2855 47.9058 29.3593C48.4405 30.4332 40.948 24.5336 40.948 24.5336C40.948 24.5336 36.3985 18.0984 33.4529 16.7568C30.5072 15.4151 27.4987 15.2812 27.4987 15.2812L27.1187 15.213L28.9689 17.4709C28.9689 17.4709 27.3414 19.125 27.4961 19.7945C27.6507 20.464 27.7424 21.761 27.7424 21.761L25.8241 24.7541C25.8241 24.7541 26.1359 27.167 28.4107 26.4082C30.6854 25.6495 31.8909 25.0666 31.8909 25.0666C31.8909 25.0666 33.0519 25.1112 32.8711 26.5421C32.6902 27.973 31.9119 29.9606 32.8475 31.234C33.7831 32.5073 35.9923 35.5923 35.9923 35.5923L35.5913 44.9103C35.5913 44.9103 34.6557 47.6593 34.053 46.8532C33.4502 46.0472 32.1137 47.9927 32.1137 47.9927L22.4775 48.3288L21.6756 47.2549L21.5419 41.2897C21.5419 41.2897 24.6867 38.6091 24.7548 36.1962C24.823 33.7833 23.8848 31.7039 26.6941 31.2366C29.5035 30.7666 28.5679 27.6842 28.5679 27.6842L27.4961 27.5503L26.8933 27.3114C26.8933 27.3114 26.0914 26.1431 25.4886 26.1431C24.8859 26.1431 23.4812 25.807 23.4812 25.807C23.4812 25.807 24.4168 25.0036 23.8166 24.1634C23.2165 23.3232 22.011 25.4027 22.011 25.4027L19.469 31.6357C19.469 31.6357 17.396 34.1824 17.1261 34.2507C16.8561 34.3189 14.3167 33.7151 12.2411 36.7974C10.1682 39.8798 8.96269 41.2897 8.96269 41.2897L7.15705 28.5533L5.61872 27.3088H5.62134Z" fill="#7E614E"/>
<path d="M37.4941 48.3309L39.4125 42.2975L40.3035 38.543L42.1773 41.0451L42.3555 43.8597C42.3555 43.8597 43.8283 46.2279 44.6748 46.5403C45.5213 46.8528 42.6228 47.0313 42.6228 47.0313C42.6228 47.0313 41.8209 47.6562 42.1327 48.3283H37.4941V48.3309Z" fill="#7E614E"/>
<path d="M20.556 18.3437C20.5481 18.6456 20.4486 18.9161 20.2913 19.1681C20.1079 19.4674 19.872 19.7221 19.6178 19.961C19.2561 20.305 18.8945 20.6437 18.5328 20.9876C18.4647 21.0506 18.3966 21.1163 18.3311 21.1793C18.3101 21.2003 18.297 21.2003 18.276 21.1793C17.9248 20.8458 17.5711 20.5176 17.2225 20.1816C17.0207 19.9873 16.8189 19.7904 16.6302 19.5856C16.418 19.3545 16.2371 19.0999 16.1376 18.7979C15.9908 18.3621 16.0301 17.942 16.3079 17.5666C16.494 17.3145 16.756 17.1727 17.06 17.1123C17.3404 17.0572 17.5946 17.1281 17.8305 17.2804C17.9877 17.3828 18.1135 17.5167 18.2315 17.6584C18.3022 17.7477 18.3022 17.7477 18.373 17.6584C18.4857 17.514 18.6115 17.3854 18.7661 17.2856C19.1015 17.0651 19.4527 17.0362 19.8222 17.2016C20.2284 17.3828 20.4643 17.6952 20.5324 18.1337C20.5429 18.2046 20.5481 18.2754 20.556 18.3463V18.3437Z" fill="#C5AFA0"/>
</g>
</svg>
